<svg xmlns="http://www.w3.org/2000/svg" xml:space="preserve" fill-rule="evenodd" stroke-linejoin="round" stroke-miterlimit="2" clip-rule="evenodd" viewBox="0 0 250 250">
  <path fill="#074d39" d="M108.934 4.487a33.993 33.993 0 0 1 31.621 0 1759.816 1759.816 0 0 1 82.694 46.518 33.996 33.996 0 0 1 16.467 28.136 1661.92 1661.92 0 0 1 0 91.657 33.999 33.999 0 0 1-16.467 28.136 1758.778 1758.778 0 0 1-82.694 46.52 33.997 33.997 0 0 1-31.62 0 1759.188 1759.188 0 0 1-82.693-46.519 33.998 33.998 0 0 1-16.468-28.137 1661.25 1661.25 0 0 1 0-91.657 33.997 33.997 0 0 1 16.468-28.136 1759.188 1759.188 0 0 1 82.692-46.518Z" />
  <path fill="#fff" fill-rule="nonzero" d="m201.786 96.615-1.836-.668c-.835-.334-1.67-1.002-2.17-1.836l-25.873-40.73c-4.006-4.508-10.517-6.01-16.192-3.673l-7.177 3.004c-2.17.835-3.506 3.004-2.838 5.343.667 2.837 3.506 4.173 6.176 3.172l7.345-3.005c2.17-.834 4.508-.334 6.01 1.336l15.857 29.713c-5.508-1.17-11.35-1.67-17.36-1.67-8.346 0-16.191 1.001-23.536 3.172-7.011 2.003-9.182 4.173-15.19 4.173-6.01 0-8.18-2.003-15.192-4.173-7.345-2.17-15.19-3.172-23.536-3.172-6.01 0-11.853.667-17.36 1.67L84.77 59.558c1.503-1.67 3.84-2.17 6.01-1.336l7.345 3.005c2.503 1 5.508-.335 6.176-3.172.5-2.171-.835-4.34-2.838-5.343l-7.177-3.004c-5.675-2.337-12.185-.835-16.192 3.673L51.887 94.11c-.5.668-1.335 1.335-2.17 1.836l-1.837.668c-1.502.667-2.337 2.003-2.337 3.673v4.84c0 1.502.835 2.838 2.171 3.506l2.838 1.502c1.502.667 2.337 2.17 2.337 3.839 0 14.022 8.847 26.875 22.2 31.215 13.021 4.173 25.54.334 33.887-7.845l-.835 10.016c0 .667-.5 1.169-1.001 1.502-5.843 2.504-9.516 8.012-9.516 14.356 0 5.342 2.671 10.182 6.845 13.02-6.845 4.674-13.187 11.852-33.052 15.023-3.004.5-3.172 4.674-.334 5.508 26.54 8.348 46.072 4.34 53.75-4.005 7.68 8.513 27.21 12.352 54.084 3.839 2.838-.835 2.504-5.008-.334-5.509-19.865-3.172-26.208-10.35-33.051-15.023 4.173-2.837 6.844-7.679 6.844-13.02 0-6.344-3.672-12.019-9.516-14.356-.667-.334-1-.835-1-1.502l-.836-10.016c8.18 8.18 20.7 12.019 33.886 7.846 13.355-4.174 22.202-17.194 22.202-31.216 0-1.67.834-3.172 2.336-3.839l2.838-1.502a3.893 3.893 0 0 0 2.17-3.506v-4.84c-.334-1.337-1.335-2.839-2.67-3.506ZM82.1 140.016c-13.02-1.67-23.036-13.354-22.702-26.54 0-3.507.835-6.677 2.17-9.85 1.002-2.503 3.339-4.172 6.01-4.84 5.843-1.502 12.018-2.17 18.529-2.17 6.176 0 12.018.667 17.527 2.003 2.671.667 4.84 2.17 6.01 4.674a26.381 26.381 0 0 1 2.337 10.85c-.002 15.524-13.857 27.877-29.88 25.873Zm62.264 21.2c1 4.34-1.67 8.68-5.843 9.515a13.48 13.48 0 0 1-5.175 0 37.086 37.086 0 0 0-8.513-1c-2.838 0-5.675.333-8.513 1-1.67.335-3.338.335-5.174 0-4.173-.834-6.844-5.174-5.843-9.515.667-2.503 2.503-4.34 4.84-5.342 3.172-1.336 5.342-4.34 5.509-7.846l3.004-35.221c.166-1.336.667-2.671 1.67-3.673l.166-.166c2.337-2.337 6.176-2.504 8.513 0a6.407 6.407 0 0 1 1.836 3.839l3.004 35.388c.334 3.506 2.337 6.344 5.509 7.846 2.506.836 4.342 2.672 5.01 5.175Zm18.194-21.032c-14.189-.835-25.373-13.187-24.872-27.376.167-3.339 1.001-6.51 2.337-9.516 1.169-2.503 3.506-4.173 6.01-4.674 5.508-1.335 11.35-1.836 17.527-1.836 6.51 0 12.686.667 18.529 2.17 2.837.668 5.174 2.672 6.176 5.343a25.342 25.342 0 0 1 2.003 9.848c0 14.857-12.519 26.875-27.71 26.04Z" />
</svg>
